<?xml version="1.0" encoding="UTF-8" standalone="no"?>
<svg
   width="300"
   height="300"
   viewBox="0.499 48.118 61.32024 61.321976"
   version="1.1"
   id="svg4"
   sodipodi:docname="blender.svg"
   inkscape:version="1.1 (c68e22c387, 2021-05-23)"
   xmlns:inkscape="http://www.inkscape.org/namespaces/inkscape"
   xmlns:sodipodi="http://sodipodi.sourceforge.net/DTD/sodipodi-0.dtd"
   xmlns="http://www.w3.org/2000/svg"
   xmlns:svg="http://www.w3.org/2000/svg">
  <defs
     id="defs8" />
  <sodipodi:namedview
     id="namedview6"
     pagecolor="#ffffff"
     bordercolor="#999999"
     borderopacity="1"
     inkscape:pageshadow="0"
     inkscape:pageopacity="0"
     inkscape:pagecheckerboard="0"
     showgrid="false"
     width="300px"
     inkscape:zoom="1.6361849"
     inkscape:cx="141.48768"
     inkscape:cy="143.93239"
     inkscape:window-width="1920"
     inkscape:window-height="1017"
     inkscape:window-x="1352"
     inkscape:window-y="-8"
     inkscape:window-maximized="1"
     inkscape:current-layer="svg4" />
  <path
     d="m 60.677125,81.526401 c -0.348401,-2.451709 -1.197557,-4.77675 -2.52469,-6.909809 -1.157349,-1.861589 -2.642413,-3.517251 -4.414985,-4.924454 l 0.0048,-0.0044 -18.616474,-14.298524 a 0.53096955,0.53096955 0 0 0 -0.04195,-0.03336 c -0.618978,-0.474153 -1.456978,-0.735047 -2.358778,-0.735047 -0.902962,0 -1.773733,0.261475 -2.450664,0.736547 -0.727832,0.508426 -1.143869,1.183031 -1.172921,1.901102 -0.02661,0.669959 0.292968,1.314583 0.902265,1.81708 1.198138,0.945379 2.393604,1.911327 3.590697,2.878439 1.161764,0.938987 2.358858,1.905981 3.550139,2.847409 l -22.802172,-0.01546 c -2.607666,0 -4.3832592,1.224519 -4.7485114,3.274604 -0.1604878,0.897965 0.1227191,1.885295 0.7558384,2.641482 0.671701,0.801626 1.646947,1.24381 2.745957,1.24381 l 1.73829,0.0011 c 2.401391,0 4.813357,-0.0059 7.222069,-0.01173 l 2.297033,-0.0053 -20.6949133,15.31061 -0.082162,0.06008 c -1.155954,0.885995 -1.9127222,2.128178 -2.0759991,3.407781 -0.1237651,0.969435 0.1023822,1.855314 0.6542698,2.562808 0.657756,0.843462 1.6847156,1.307378 2.8919188,1.307378 1.1859365,0 2.3960451,-0.44939 3.408943,-1.267633 L 19.630704,84.165088 c -0.04776,0.4466 -0.105751,1.1018 -0.09913,1.577337 0.01255,0.752932 0.254271,2.26368 0.636954,3.490174 0.790703,2.520624 2.122599,4.826838 3.958507,6.852168 1.910281,2.107145 4.236832,3.777914 6.914573,4.964783 2.830909,1.25206 5.874134,1.88762 9.045425,1.88762 h 0.0294 c 3.181401,-0.008 6.234273,-0.65334 9.074362,-1.9197 2.682157,-1.200924 5.007662,-2.878434 6.910738,-4.98523 1.833582,-2.035674 3.163621,-4.345721 3.952812,-6.864254 a 17.56232,17.56232 0 0 0 0.745612,-3.835323 c 0.0975,-1.258569 0.05555,-2.539216 -0.122835,-3.80627 z M 40.318877,93.607615 c -6.989065,0 -12.656691,-5.069951 -12.656691,-11.324445 0,-6.253795 5.667742,-11.323747 12.656691,-11.323747 6.989182,0 12.656227,5.069952 12.656227,11.323747 2.32e-4,6.254494 -5.667045,11.324445 -12.656227,11.324445 z m 7.298885,-12.319563 c 0.103079,1.866703 -0.642533,3.599995 -1.951886,4.883084 -1.331897,1.307145 -3.232418,2.128178 -5.35769,2.128178 -2.124343,0 -4.025212,-0.821033 -5.357575,-2.128178 -1.308772,-1.283089 -2.052873,-3.016148 -1.950374,-4.881573 0.100406,-1.813245 0.984891,-3.413824 2.317137,-4.547116 1.310051,-1.114351 3.069141,-1.794188 4.990695,-1.794188 1.921788,0 3.680413,0.68007 4.99058,1.794188 1.332943,1.133292 2.21766,2.732709 2.319113,4.545605 z"
     id="path2"
     style="stroke-width:0.116211;fill:#ed143d;fill-opacity:1" />
</svg>
