<?xml version="1.0" encoding="UTF-8" standalone="no"?>
<svg
   height="300"
   viewBox="0 0 61.44 61.425301"
   width="300"
   version="1.1"
   id="svg4"
   sodipodi:docname="bootstrap.svg"
   inkscape:version="1.1 (c68e22c387, 2021-05-23)"
   xmlns:inkscape="http://www.inkscape.org/namespaces/inkscape"
   xmlns:sodipodi="http://sodipodi.sourceforge.net/DTD/sodipodi-0.dtd"
   xmlns="http://www.w3.org/2000/svg"
   xmlns:svg="http://www.w3.org/2000/svg">
  <defs
     id="defs8" />
  <sodipodi:namedview
     id="namedview6"
     pagecolor="#ffffff"
     bordercolor="#999999"
     borderopacity="1"
     inkscape:pageshadow="0"
     inkscape:pageopacity="0"
     inkscape:pagecheckerboard="0"
     showgrid="false"
     width="300px"
     inkscape:zoom="1.6706827"
     inkscape:cx="185.85217"
     inkscape:cy="123.60217"
     inkscape:window-width="1920"
     inkscape:window-height="1017"
     inkscape:window-x="1352"
     inkscape:window-y="-8"
     inkscape:window-maximized="1"
     inkscape:current-layer="svg4" />
  <path
     d="m 12.761281,6.2408103 c -3.5056801,0 -6.0997206,3.0684007 -5.9835606,6.3959997 0.1114759,3.19692 -0.033362,7.337401 -1.07568,10.71396 C 4.6559998,26.73681 2.88816,28.882531 9.9999998e-8,29.157931 V 32.26737 C 2.88816,32.543371 4.6559998,34.68801 5.7019201,38.074531 c 1.0424406,3.37656 1.1871607,7.517039 1.07568,10.713959 -0.1161576,3.327121 2.4778805,6.396001 5.9841599,6.396001 H 48.6834 c 3.50568,0 6.09924,-3.068399 5.983079,-6.396001 -0.111476,-3.19692 0.03336,-7.337399 1.075681,-10.713959 C 56.7882,34.68801 58.551719,32.54253 61.44,32.26737 V 29.157931 C 58.55184,28.88193 56.78832,26.737291 55.74216,23.35077 54.69972,19.97469 54.555,15.83373 54.666479,12.63681 54.78264,9.3096905 52.18908,6.2408103 48.6834,6.2408103 H 12.760802 Z M 41.65428,36.368851 c 0,4.58196 -3.41772,7.360799 -9.08952,7.360799 h -9.654959 a 1.04136,1.04136 0 0 1 -1.04136,-1.04136 V 18.73713 a 1.04136,1.04136 0 0 1 1.04136,-1.041359 H 32.5098 c 4.729319,0 7.833119,2.561759 7.833119,6.49488 0,2.7606 -2.087999,5.231999 -4.748039,5.66496 v 0.143999 c 3.62112,0.397201 6.0594,2.9052 6.0594,6.369241 z M 31.512,20.99685 h -5.505119 v 7.776001 h 4.636679 c 3.5844,0 5.560799,-1.443361 5.560799,-4.02324 C 36.204,22.331851 34.5048,20.996851 31.512,20.99685 Z m -5.505119,10.86132 v 8.56932 h 5.70768 c 3.731999,0 5.708759,-1.49748 5.708759,-4.31172 0,-2.81424 -2.0322,-4.258079 -5.94876,-4.258079 h -5.467679 z"
     fill="#7952b3"
     fill-rule="evenodd"
     id="path2"
     style="stroke-width:0.12;fill:#ed143d;fill-opacity:1" />
</svg>
