<?xml version="1.0" encoding="UTF-8" standalone="no"?>
<svg
   width="300"
   height="300"
   viewBox="0 0 30.72 30.710898"
   preserveAspectRatio="xMinYMin meet"
   version="1.1"
   id="svg6"
   sodipodi:docname="git.svg"
   inkscape:version="1.1 (c68e22c387, 2021-05-23)"
   xmlns:inkscape="http://www.inkscape.org/namespaces/inkscape"
   xmlns:sodipodi="http://sodipodi.sourceforge.net/DTD/sodipodi-0.dtd"
   xmlns="http://www.w3.org/2000/svg"
   xmlns:svg="http://www.w3.org/2000/svg">
  <defs
     id="defs10" />
  <sodipodi:namedview
     id="namedview8"
     pagecolor="#ffffff"
     bordercolor="#999999"
     borderopacity="1"
     inkscape:pageshadow="0"
     inkscape:pageopacity="0"
     inkscape:pagecheckerboard="0"
     showgrid="false"
     inkscape:zoom="1.6928"
     inkscape:cx="106.62807"
     inkscape:cy="153.88705"
     inkscape:window-width="1920"
     inkscape:window-height="1017"
     inkscape:window-x="1352"
     inkscape:window-y="-8"
     inkscape:window-maximized="1"
     inkscape:current-layer="g829" />
  <g
     id="g829"
     transform="matrix(0.12034493,0,0,0.12034493,-8.961262e-5,1.1533234)">
    <path
       d="M 244.16422,107.26242 138.41719,1.5222177 a 15.595163,15.595163 0 0 0 -22.05828,0 L 94.400651,23.482753 122.25597,51.335804 a 18.516414,18.516414 0 0 1 19.05747,4.439847 18.543694,18.543694 0 0 1 4.4012,19.173411 l 26.84142,26.845958 c 6.49495,-2.236975 13.99017,-0.78886 19.17568,4.40574 a 18.552787,18.552787 0 0 1 0,26.2458 18.559607,18.559607 0 0 1 -30.29008,-20.18732 l -25.03411,-25.034103 -0.002,65.881603 a 18.750569,18.750569 0 0 1 4.90815,3.51004 18.559607,18.559607 0 0 1 0,26.25035 c -7.25197,7.25198 -19.00518,7.25198 -26.24579,0 a 18.559607,18.559607 0 0 1 6.07438,-30.29917 V 86.07255 a 18.332273,18.332273 0 0 1 -6.07438,-4.051105 c -5.4923,-5.485586 -6.81312,-13.544602 -3.99871,-20.289624 L 83.611345,34.269785 11.105206,106.77137 a 15.601983,15.601983 0 0 0 0,22.06511 L 116.85223,234.57896 a 15.599709,15.599709 0 0 0 22.05828,0 L 244.16422,129.3298 a 15.608803,15.608803 0 0 0 0,-22.06738"
       fill="#de4c36"
       id="path4"
       style="stroke-width:2.27335;fill:#ed143d;fill-opacity:1" />
  </g>
</svg>
