<?xml version="1.0" encoding="UTF-8" standalone="no"?>
<svg
   id="Bold"
   enable-background="new 0 0 24 24"
   height="300"
   viewBox="0 0 14.0625 14.0625"
   width="300"
   version="1.1"
   sodipodi:docname="github.svg"
   inkscape:version="1.1 (c68e22c387, 2021-05-23)"
   xmlns:inkscape="http://www.inkscape.org/namespaces/inkscape"
   xmlns:sodipodi="http://sodipodi.sourceforge.net/DTD/sodipodi-0.dtd"
   xmlns="http://www.w3.org/2000/svg"
   xmlns:svg="http://www.w3.org/2000/svg">
  <defs
     id="defs7" />
  <sodipodi:namedview
     id="namedview5"
     pagecolor="#ffffff"
     bordercolor="#999999"
     borderopacity="1"
     inkscape:pageshadow="0"
     inkscape:pageopacity="0"
     inkscape:pagecheckerboard="0"
     showgrid="false"
     width="300px"
     inkscape:zoom="0.8125"
     inkscape:cx="241.84615"
     inkscape:cy="241.84615"
     inkscape:window-width="1920"
     inkscape:window-height="1017"
     inkscape:window-x="1352"
     inkscape:window-y="-8"
     inkscape:window-maximized="1"
     inkscape:current-layer="Bold" />
  <path
     d="m 7.03125,0.83884969 c -3.57,0 -6.4615385,2.84307691 -6.4615385,6.34953851 0,2.805923 1.8512308,5.1853848 4.4180769,6.0243078 0.323077,0.05977 0.4415385,-0.136769 0.4415385,-0.305308 0,-0.150769 -0.00538,-0.550307 -0.00808,-1.079615 C 3.6238653,12.210619 3.2447884,10.975927 3.2447884,10.975927 2.9507884,10.24308 2.5259423,10.04708 2.5259423,10.04708 1.9406346,9.6534651 2.571173,9.661542 2.571173,9.661542 c 0.6488462,0.044154 0.9896923,0.654231 0.9896923,0.654231 0.5761539,0.970846 1.5125385,0.690308 1.8819231,0.528231 0.058154,-0.410846 0.2245385,-0.690308 0.4092308,-0.8491543 -1.435,-0.1588461 -2.9432308,-0.7048461 -2.9432308,-3.1376154 0,-0.693 0.2503846,-1.2594615 0.665,-1.7036923 -0.072692,-0.1604615 -0.2907692,-0.8060769 0.056539,-1.6805385 0,0 0.5411538,-0.1701538 1.7769231,0.651 0.516923,-0.1410769 1.0661538,-0.2110769 1.6153846,-0.2143076 0.5492308,0.00323 1.0984615,0.073231 1.6153846,0.2143076 1.2276923,-0.8211538 1.7688463,-0.651 1.7688463,-0.651 0.347309,0.8744616 0.129231,1.520077 0.06461,1.6805385 0.411923,0.4442308 0.662308,1.0106923 0.662308,1.7036923 0,2.4392308 -1.510385,2.9760769 -2.9480773,3.1322308 0.2261539,0.1906149 0.4361539,0.5799229 0.4361539,1.1749229 0,0.849693 -0.00808,1.532462 -0.00808,1.738693 0,0.166384 0.113077,0.365077 0.4442308,0.301538 2.5851626,-0.833538 4.4347776,-3.2146154 4.4347776,-6.0162308 0,-3.5064616 -2.893154,-6.34953851 -6.461539,-6.34953851 z"
     id="path2"
     style="stroke-width:0.538462;fill:#ed143d;fill-opacity:1" />
</svg>
