<?xml version="1.0" encoding="UTF-8" standalone="no"?>
<!-- Generator: Adobe Illustrator 19.0.0, SVG Export Plug-In . SVG Version: 6.00 Build 0)  -->

<svg
   version="1.1"
   id="Capa_1"
   x="0px"
   y="0px"
   viewBox="0 0 300 300"
   xml:space="preserve"
   sodipodi:docname="html.svg"
   width="300"
   height="300"
   inkscape:version="1.1 (c68e22c387, 2021-05-23)"
   xmlns:inkscape="http://www.inkscape.org/namespaces/inkscape"
   xmlns:sodipodi="http://sodipodi.sourceforge.net/DTD/sodipodi-0.dtd"
   xmlns="http://www.w3.org/2000/svg"
   xmlns:svg="http://www.w3.org/2000/svg"><defs
   id="defs39" /><sodipodi:namedview
   id="namedview37"
   pagecolor="#ffffff"
   bordercolor="#999999"
   borderopacity="1"
   inkscape:pageshadow="0"
   inkscape:pageopacity="0"
   inkscape:pagecheckerboard="0"
   showgrid="false"
   width="300px"
   inkscape:zoom="1.625"
   inkscape:cx="162.15385"
   inkscape:cy="125.23077"
   inkscape:window-width="1920"
   inkscape:window-height="1017"
   inkscape:window-x="1352"
   inkscape:window-y="-8"
   inkscape:window-maximized="1"
   inkscape:current-layer="g884" />


<g
   id="g6">
</g>
<g
   id="g8">
</g>
<g
   id="g10">
</g>
<g
   id="g12">
</g>
<g
   id="g14">
</g>
<g
   id="g16">
</g>
<g
   id="g18">
</g>
<g
   id="g20">
</g>
<g
   id="g22">
</g>
<g
   id="g24">
</g>
<g
   id="g26">
</g>
<g
   id="g28">
</g>
<g
   id="g30">
</g>
<g
   id="g32">
</g>
<g
   id="g34">
</g>
<g
   id="g884"
   transform="matrix(0.53710937,0,0,0.53710937,28.506279,12.500001)"><path
     d="M 0,0 31.800781,448.10156 226.19922,512 420.59766,448.10156 452.39844,0 Z m 0,0"
     fill="#ff7816"
     id="path860"
     style="fill:#ed4f6d;fill-opacity:1" /><path
     d="M 452.39844,0 420.59766,448.10156 226.19922,512 V 0 Z m 0,0"
     fill="#ff4b00"
     id="path862"
     style="fill:#ed143d;fill-opacity:1" /><path
     d="M 367.5,136 H 145.19922 l 5.39844,75 h 211.5039 l -12.90234,181.59766 -123,41.10156 -123,-41.10156 L 99,332 h 60 l 1.19922,16.5 66,21.89844 66,-21.89844 5.39844,-77.5 H 94.5 L 80.699219,76 H 371.69922 Z m 0,0"
     fill="#ececf1"
     id="path864" /><g
     fill="#e2e2e7"
     id="g870"><path
       d="m 362.10156,211 -12.90234,181.59766 -123,41.10156 v -63.30078 l 66,-21.89844 5.39844,-77.5 h -71.39844 v -60 z m 0,0"
       id="path866" /><path
       d="M 371.69922,76 367.5,136 H 226.19922 V 76 Z m 0,0"
       id="path868" /></g></g></svg>
