<?xml version="1.0" encoding="UTF-8" standalone="no"?>
<!-- Generator: Adobe Illustrator 18.1.1, SVG Export Plug-In . SVG Version: 6.00 Build 0)  -->

<svg
   version="1.1"
   id="Capa_1"
   x="0px"
   y="0px"
   viewBox="0 0 299.99999 299.99999"
   xml:space="preserve"
   sodipodi:docname="illustrator.svg"
   width="300"
   height="300"
   inkscape:version="1.1 (c68e22c387, 2021-05-23)"
   xmlns:inkscape="http://www.inkscape.org/namespaces/inkscape"
   xmlns:sodipodi="http://sodipodi.sourceforge.net/DTD/sodipodi-0.dtd"
   xmlns="http://www.w3.org/2000/svg"
   xmlns:svg="http://www.w3.org/2000/svg"><defs
   id="defs43" /><sodipodi:namedview
   id="namedview41"
   pagecolor="#ffffff"
   bordercolor="#999999"
   borderopacity="1"
   inkscape:pageshadow="0"
   inkscape:pageopacity="0"
   inkscape:pagecheckerboard="0"
   showgrid="false"
   width="300px"
   inkscape:snap-page="false"
   inkscape:zoom="1.0897265"
   inkscape:cx="143.61402"
   inkscape:cy="124.34313"
   inkscape:window-width="1920"
   inkscape:window-height="1017"
   inkscape:window-x="1352"
   inkscape:window-y="-8"
   inkscape:window-maximized="1"
   inkscape:current-layer="g6" />
<g
   id="g8"
   transform="matrix(17.781993,0,0,17.781993,-1.9515e-6,-1.9515e-6)">
	<g
   id="g6">
		<path
   style="fill:#ed143d;fill-opacity:1"
   d="M 6.847,5.772 H 6.822 C 6.695,6.283 6.568,6.932 6.427,7.429 L 5.917,9.25 H 7.815 L 7.28,7.429 C 7.128,6.919 6.975,6.283 6.847,5.772 Z"
   id="path2" />
		<path
   style="fill:#ed143d;fill-opacity:1"
   d="M 15.837,0 H 1.033 C 0.462,0 0,0.462 0,1.033 v 14.805 c 0,0.57 0.462,1.033 1.033,1.033 h 14.805 c 0.57,0 1.033,-0.463 1.033,-1.033 V 1.033 C 16.871,0.463 16.408,0 15.837,0 Z M 8.758,12.905 8.095,10.702 H 5.638 L 5.026,12.905 H 3.014 L 5.638,4.322 h 2.546 l 2.663,8.583 z m 5.035,0 H 11.856 V 6.678 h 1.937 z m -0.98,-6.991 c -0.611,0 -1.019,-0.434 -1.007,-0.969 -0.012,-0.561 0.396,-0.979 1.021,-0.979 0.623,0 1.018,0.419 1.03,0.979 0,0.535 -0.407,0.969 -1.044,0.969 z"
   id="path4" />
	</g>
</g>
<g
   id="g10">
</g>
<g
   id="g12">
</g>
<g
   id="g14">
</g>
<g
   id="g16">
</g>
<g
   id="g18">
</g>
<g
   id="g20">
</g>
<g
   id="g22">
</g>
<g
   id="g24">
</g>
<g
   id="g26">
</g>
<g
   id="g28">
</g>
<g
   id="g30">
</g>
<g
   id="g32">
</g>
<g
   id="g34">
</g>
<g
   id="g36">
</g>
<g
   id="g38">
</g>
</svg>
