<?xml version="1.0" encoding="UTF-8" standalone="no"?>
<svg
   height="300"
   viewBox="0 0 299.99987 299.99972"
   width="300"
   version="1.1"
   id="svg48"
   sodipodi:docname="inkscape.svg"
   inkscape:version="1.1 (c68e22c387, 2021-05-23)"
   xmlns:inkscape="http://www.inkscape.org/namespaces/inkscape"
   xmlns:sodipodi="http://sodipodi.sourceforge.net/DTD/sodipodi-0.dtd"
   xmlns="http://www.w3.org/2000/svg"
   xmlns:svg="http://www.w3.org/2000/svg">
  <defs
     id="defs52" />
  <sodipodi:namedview
     id="namedview50"
     pagecolor="#ffffff"
     bordercolor="#999999"
     borderopacity="1"
     inkscape:pageshadow="0"
     inkscape:pageopacity="0"
     inkscape:pagecheckerboard="0"
     inkscape:document-units="mm"
     showgrid="false"
     units="px"
     inkscape:zoom="2.8210106"
     inkscape:cx="157.92213"
     inkscape:cy="180.25455"
     inkscape:window-width="1920"
     inkscape:window-height="1017"
     inkscape:window-x="1352"
     inkscape:window-y="-8"
     inkscape:window-maximized="1"
     inkscape:current-layer="g953" />
  <g
     id="g953"
     transform="matrix(0.81242676,0,0,0.81242676,-76.892348,12.86357)">
    <path
       d="M 247.723,11.5906 121.437,140.819 c -42.6686,52.84 29.038,46.692 59.778,61.911 11.026,11.271 -42.265,19.591 -31.238,30.871 11.027,11.271 66.677,21.715 77.723,32.986 11.027,11.272 -22.571,23.229 -11.544,34.5 11.027,11.271 36.53,0.592 41.306,26.613 3.403,18.594 45.959,7.99 66.771,-7.239 11.027,-11.28 -21.094,-10.218 -10.068,-21.489 27.421,-28.042 52.953,-10.19 62.335,-38.288 4.634,-13.885 -40.366,-21.405 -29.32,-32.676 31.726,-18.528 141.383,-30.589 89.351,-82.621 L 305.63,11.5906 c -16.009,-15.36977 -42.725,-15.53898 -57.907,0 z M 392.781,260.684 c 0,6.411 47.238,10.613 47.238,-1.514 -6.731,-19.477 -41.654,-18.161 -47.238,1.514 z m -212.788,34.067 c 11.186,9.673 28.464,-2.406 33.644,-15.905 -10.839,-14.402 -51.411,0.517 -33.644,15.905 z m 206.866,-20.897 c -14.42,12.935 1.617,26.058 15.83,17.701 3.168,-3.215 -0.084,-14.486 -15.83,-17.701 z"
       id="path40"
       style="fill:#ed143d;fill-opacity:1" />
    <g
       fill="#ffffff"
       id="g46">
      <path
         d="m 217.5,209.724 c 3.375,2.096 54.42,12.465 66.894,14.533 4.324,0.912 1.26,5.368 -4.7,8.376 -13.443,3.572 -78.644,-22.909 -62.194,-22.909 z"
         id="path42" />
      <path
         d="m 297.997,20.6526 49.963,50.7437 c 4.738,4.8412 4.672,14.2229 2.021,16.9208 L 325.173,68.4728 320.294,97.8586 299.566,86.9165 266.373,107.889 255.384,63.6785 237.552,94.5308 H 210.29 c -11.111,0 -12.418,-14.1007 -2.322,-24.1967 17.636,-19.036 37.875,-38.4385 48.873,-49.6815 11.055,-11.29933 30.317,-10.97971 41.156,0 z"
         id="path44" />
    </g>
  </g>
</svg>
