<?xml version="1.0" encoding="UTF-8" standalone="no"?>
<svg
   height="300"
   viewBox="0 0 299.99987 299.99972"
   width="300"
   version="1.1"
   id="svg48"
   sodipodi:docname="java.svg"
   inkscape:version="1.2.1 (9c6d41e410, 2022-07-14)"
   xml:space="preserve"
   xmlns:inkscape="http://www.inkscape.org/namespaces/inkscape"
   xmlns:sodipodi="http://sodipodi.sourceforge.net/DTD/sodipodi-0.dtd"
   xmlns="http://www.w3.org/2000/svg"
   xmlns:svg="http://www.w3.org/2000/svg"><defs
     id="defs52" /><sodipodi:namedview
     id="namedview50"
     pagecolor="#ffffff"
     bordercolor="#999999"
     borderopacity="1"
     inkscape:pageshadow="0"
     inkscape:pageopacity="0"
     inkscape:pagecheckerboard="0"
     inkscape:document-units="mm"
     showgrid="false"
     units="px"
     inkscape:zoom="1.4105053"
     inkscape:cx="148.88282"
     inkscape:cy="154.55454"
     inkscape:window-width="1920"
     inkscape:window-height="1011"
     inkscape:window-x="0"
     inkscape:window-y="32"
     inkscape:window-maximized="1"
     inkscape:current-layer="g953"
     inkscape:showpageshadow="0"
     inkscape:deskcolor="#d1d1d1" /><g
     id="g953"
     transform="matrix(0.81242676,0,0,0.81242676,-76.892348,12.86357)"><g
       id="g2060"
       transform="matrix(14.730815,0,0,14.730815,148.86835,-7.9679241)"><path
         d="m 5.701,18.561 c 0,0 -0.918,0.534 0.653,0.714 0.575,0.085 1.239,0.134 1.913,0.134 1.084,0 2.138,-0.125 3.149,-0.363 l -0.093,0.018 c 0.374,0.228 0.809,0.445 1.262,0.624 l 0.059,0.02 C 7.946,21.722 2.011,19.591 5.702,18.56 Z"
         id="path2030"
         style="fill:#ed143d;fill-opacity:1" /><path
         d="m 5.127,15.933 c 0,0 -1.029,0.762 0.542,0.924 0.687,0.086 1.482,0.136 2.289,0.136 1.461,0 2.884,-0.162 4.252,-0.468 l -0.129,0.024 c 0.275,0.258 0.604,0.463 0.968,0.596 l 0.02,0.006 C 7.389,18.812 1.061,17.282 5.127,15.933 Z"
         id="path2032"
         style="fill:#ed143d;fill-opacity:1" /><path
         d="m 9.966,11.475 c 1.158,1.333 -0.304,2.532 -0.304,2.532 0,0 2.939,-1.52 1.59,-3.418 -1.261,-1.772 -2.228,-2.653 3.006,-5.688 0,0 -8.216,2.052 -4.292,6.574 z"
         id="path2034"
         style="fill:#ed143d;fill-opacity:1" /><path
         d="m 16.18,20.505 c 0,0 0.678,0.56 -0.747,0.992 -2.712,0.822 -11.287,1.07 -13.67,0.033 -0.856,-0.373 0.75,-0.89 1.254,-0.998 0.232,-0.059 0.499,-0.093 0.774,-0.093 H 3.848 3.845 c -0.952,-0.671 -6.155,1.318 -2.64,1.886 9.579,1.554 17.462,-0.7 14.978,-1.82 z"
         id="path2036"
         style="fill:#ed143d;fill-opacity:1" /><path
         d="m 6.142,13.21 c 0,0 -4.362,1.036 -1.545,1.412 0.759,0.063 1.644,0.098 2.536,0.098 1.139,0 2.264,-0.058 3.372,-0.171 l -0.139,0.012 c 1.805,-0.152 3.618,-0.48 3.618,-0.48 -0.425,0.186 -0.785,0.382 -1.126,0.605 l 0.029,-0.018 C 8.457,15.833 -0.099,15.291 2.364,14.099 3.45,13.536 4.736,13.206 6.098,13.206 H 6.144 6.142 Z"
         id="path2038"
         style="fill:#ed143d;fill-opacity:1" /><path
         d="m 13.966,17.585 c 4.502,-2.34 2.421,-4.588 0.967,-4.286 -0.199,0.037 -0.372,0.085 -0.539,0.146 l 0.023,-0.007 c 0.095,-0.134 0.226,-0.237 0.379,-0.295 l 0.006,-0.002 c 2.874,-1.01 5.086,2.981 -0.928,4.56 0.037,-0.033 0.067,-0.072 0.089,-0.115 l 0.001,-0.002 z"
         id="path2040"
         style="fill:#ed143d;fill-opacity:1" /><path
         d="m 11.252,0 c 0,0 2.494,2.494 -2.366,6.33 -3.896,3.077 -0.889,4.831 0,6.836 C 6.612,11.114 4.943,9.308 6.062,7.626 7.706,5.158 12.259,3.962 11.252,-0.001 Z"
         id="path2042"
         style="fill:#ed143d;fill-opacity:1" /><path
         d="m 6.585,23.925 c 4.32,0.277 10.96,-0.154 11.12,-2.198 0,0 -0.302,0.775 -3.572,1.391 -1.806,0.326 -3.885,0.512 -6.008,0.512 -1.739,0 -3.448,-0.125 -5.121,-0.366 l 0.191,0.023 c 0,0 0.553,0.458 3.393,0.64 z"
         id="path2044"
         style="fill:#ed143d;fill-opacity:1" /></g></g></svg>
