<?xml version="1.0" encoding="UTF-8" standalone="no"?>
<!-- Created with Inkscape (http://www.inkscape.org/) -->

<svg
   width="331"
   height="300"
   viewBox="0 0 87.577072 79.374999"
   version="1.1"
   id="svg5"
   inkscape:version="1.1 (c68e22c387, 2021-05-23)"
   sodipodi:docname="logo_AD.svg"
   xmlns:inkscape="http://www.inkscape.org/namespaces/inkscape"
   xmlns:sodipodi="http://sodipodi.sourceforge.net/DTD/sodipodi-0.dtd"
   xmlns="http://www.w3.org/2000/svg"
   xmlns:svg="http://www.w3.org/2000/svg">
  <sodipodi:namedview
     id="namedview7"
     pagecolor="#ffffff"
     bordercolor="#999999"
     borderopacity="1"
     inkscape:pageshadow="0"
     inkscape:pageopacity="0"
     inkscape:pagecheckerboard="0"
     inkscape:document-units="mm"
     showgrid="false"
     showguides="true"
     inkscape:guide-bbox="true"
     inkscape:zoom="1.2278727"
     inkscape:cx="211.34112"
     inkscape:cy="242.28895"
     inkscape:window-width="1920"
     inkscape:window-height="1016"
     inkscape:window-x="1360"
     inkscape:window-y="27"
     inkscape:window-maximized="1"
     inkscape:current-layer="layer1"
     units="px" />
  <defs
     id="defs2">
    <filter
       style="color-interpolation-filters:sRGB;"
       inkscape:label="Blur"
       id="filter16244"
       x="-0.028726305"
       y="-0.03954202"
       width="1.0574526"
       height="1.079084">
      <feGaussianBlur
         stdDeviation="0.5 0.5"
         result="fbSourceGraphic"
         id="feGaussianBlur16242" />
      <feColorMatrix
         result="fbSourceGraphicAlpha"
         in="fbSourceGraphic"
         values="0 0 0 -1 0 0 0 0 -1 0 0 0 0 -1 0 0 0 0 1 0"
         id="feColorMatrix16264" />
      <feGaussianBlur
         id="feGaussianBlur16266"
         stdDeviation="0.5 0.5"
         result="blur"
         in="fbSourceGraphic" />
    </filter>
  </defs>
  <g
     inkscape:groupmode="layer"
     id="layer4"
     inkscape:label="Layer 3" />
  <g
     inkscape:label="Layer 1"
     inkscape:groupmode="layer"
     id="layer1"
     style="display:inline">
    <path
       style="color:#000000;-inkscape-font-specification:'Arial Bold';fill:#a7a7a7;-inkscape-stroke:none;filter:url(#filter16244)"
       d="m 54.899748,9.3423401 c -3.744458,-0.0054 -7.440316,0.123128 -11.062499,0.04492 l -0.02148,-0.002 H 25.626311 L 25.149749,10.607913 C 17.782151,29.53965 10.406399,48.468648 3.0325604,67.398928 l -1.017578,2.61133 h 2.802735 15.3398436 l 0.460938,-1.25977 c 3.258663,-8.93159 6.516943,-17.86329 9.775391,-26.79492 v 28.07227 l 1.933593,-0.0176 c 9.943859,-0.0889 19.970789,0.21917 30.048827,-0.19922 l 0.0293,-0.002 0.02734,-0.002 c 7.574214,-0.53764 15.082086,-4.50905 18.804689,-11.51946 4.98289,-8.74605 5.012443,-19.15761 3.30664,-28.437501 l -0.002,-0.01367 -0.002,-0.01172 C 82.734787,20.700115 76.126889,11.859285 66.284514,10.106012 l -0.01563,-0.0039 -0.01563,-0.002 C 62.437506,9.4864841 58.644207,9.3477501 54.899748,9.3423401 Z M 54.44273,24.666559 c 2.840902,0.110949 5.533071,0.08239 7.86914,0.695312 2.071757,0.671893 3.402168,2.134719 4.339844,4.171875 0.942699,2.048068 1.372417,4.624122 1.431641,6.939452 3.2e-5,0.001 -3.2e-5,0.003 0,0.004 0.0752,5.73621 0.315743,11.57451 -2.525391,15.81055 -1.258597,1.49514 -2.903278,2.10812 -5.042969,2.37695 -1.823031,0.22905 -3.990939,0.13994 -6.06826,0.1543 0,-1.5619 -0.004,-2.10269 -0.004,-3.36317 z"
       id="path11633"
       sodipodi:nodetypes="sccccccccccccccccccccccsccssccsccc" />
    <g
       id="g1588"
       transform="translate(-22.285558,-27.720574)"
       style="font-size:10.5833px;font-family:Arial;-inkscape-font-specification:Arial;stroke-width:0.264583">
      <path
         style="color:#000000;-inkscape-font-specification:'Arial Bold';fill:#de281e;fill-opacity:1;stroke:none;stroke-width:0.43303;stroke-miterlimit:4;stroke-dasharray:none;stroke-opacity:1"
         d="m 65.447867,94.747666 h -10.4697 c 0,-13.973456 0,-27.946901 0,-41.920358 L 39.68696,94.747666 H 27.976119 L 49.271943,40.072224 h 16.175903 z"
         id="path13496"
         sodipodi:nodetypes="cccccccc" />
      <path
         id="path13498"
         style="color:#000000;-inkscape-font-specification:'Arial Bold';fill:#000000;fill-opacity:1;stroke:none;stroke-width:0.43303;stroke-miterlimit:4;stroke-dasharray:none;stroke-opacity:1"
         d="m 58.335549,40.072589 v 12.169619 l 7.112307,-2.920266 v 15.600824 l -3.703463,-2.621881 v 10.219037 l 3.703463,-2.621899 v 15.63814 L 58.335549,82.578597 V 94.748198 H 79.10931 c 4.07765,0 7.334832,-0.385387 9.771494,-1.156153 3.257153,-1.044294 5.843018,-2.498828 7.757525,-4.363609 2.536113,-2.461516 4.487921,-5.681414 5.855431,-9.659604 1.11887,-3.257161 1.67832,-7.135947 1.67832,-11.636285 0,-5.121947 -0.59675,-9.423424 -1.79021,-12.904353 -1.19345,-3.505788 -2.933925,-6.464609 -5.221388,-8.876381 -2.287493,-2.411793 -5.034947,-4.09011 -8.242385,-5.034933 -2.386918,-0.696181 -5.855462,-1.044291 -10.40552,-1.044291 z m 14.743719,9.249353 h 1.256181 c 4.50035,0 7.521313,0.174036 9.06287,0.522146 2.06369,0.44754 3.766884,1.305365 5.109536,2.573416 1.342639,1.268052 2.386923,3.033387 3.132831,5.295988 0.745905,2.262619 1.118888,5.507355 1.118888,9.734206 0,4.226832 -0.372983,7.571055 -1.118888,10.032571 -0.745908,2.436633 -1.715604,4.189561 -2.909081,5.258695 -1.168574,1.069131 -2.647995,1.827487 -4.438184,2.275046 -1.36751,0.348107 -3.592836,0.522153 -6.675943,0.522153 h -4.53821 z"
         sodipodi:nodetypes="ccccccccccscccscscsccscssscccscc" />
    </g>
  </g>
</svg>
