<?xml version="1.0" encoding="UTF-8" standalone="no"?>
<!-- Generator: Adobe Illustrator 18.1.1, SVG Export Plug-In . SVG Version: 6.00 Build 0)  -->

<svg
   version="1.1"
   id="Capa_1"
   x="0px"
   y="0px"
   viewBox="0 0 300 300"
   xml:space="preserve"
   sodipodi:docname="photoshop.svg"
   width="300"
   height="300"
   inkscape:version="1.1 (c68e22c387, 2021-05-23)"
   xmlns:inkscape="http://www.inkscape.org/namespaces/inkscape"
   xmlns:sodipodi="http://sodipodi.sourceforge.net/DTD/sodipodi-0.dtd"
   xmlns="http://www.w3.org/2000/svg"
   xmlns:svg="http://www.w3.org/2000/svg"><defs
   id="defs43" /><sodipodi:namedview
   id="namedview41"
   pagecolor="#ffffff"
   bordercolor="#999999"
   borderopacity="1"
   inkscape:pageshadow="0"
   inkscape:pageopacity="0"
   inkscape:pagecheckerboard="0"
   showgrid="false"
   width="300px"
   inkscape:zoom="1.0524229"
   inkscape:cx="146.8041"
   inkscape:cy="171.509"
   inkscape:window-width="1920"
   inkscape:window-height="1017"
   inkscape:window-x="1352"
   inkscape:window-y="-8"
   inkscape:window-maximized="1"
   inkscape:current-layer="g6" />
<g
   id="g8"
   transform="matrix(17.173278,0,0,17.177212,3.309e-6,-0.03435821)">
	<g
   id="g6">
		<path
   style="fill:#ed143d;fill-opacity:1"
   d="m 5.925,4.982 c -0.442,0 -0.742,0.043 -0.898,0.087 V 7.91 C 5.213,7.952 5.44,7.966 5.754,7.966 6.911,7.966 7.625,7.381 7.625,6.395 7.624,5.511 7.01,4.982 5.925,4.982 Z"
   id="path2" />
		<path
   style="fill:#ed143d;fill-opacity:1"
   d="M 16.4,0.002 H 1.07 C 0.479,0.002 0,0.48 0,1.069 v 15.329 c 0,0.59 0.479,1.069 1.07,1.069 H 16.4 c 0.59,0 1.069,-0.479 1.069,-1.069 V 1.07 C 17.469,0.48 16.99,0.002 16.4,0.002 Z M 8.894,8.624 C 8.153,9.324 7.052,9.638 5.769,9.638 5.482,9.638 5.226,9.624 5.026,9.595 v 3.442 H 2.869 V 3.541 C 3.54,3.428 4.482,3.342 5.811,3.342 c 1.341,0 2.299,0.256 2.94,0.771 0.617,0.486 1.03,1.286 1.03,2.228 0,0.942 -0.315,1.739 -0.887,2.283 z m 3.251,4.555 c -0.916,0 -1.729,-0.198 -2.258,-0.485 l 0.385,-1.556 c 0.4,0.241 1.229,0.527 1.873,0.527 0.655,0 0.927,-0.228 0.927,-0.586 0,-0.356 -0.214,-0.527 -1.027,-0.799 -1.442,-0.485 -2,-1.271 -1.986,-2.099 0,-1.298 1.114,-2.286 2.842,-2.286 0.814,0 1.542,0.187 1.97,0.4 l -0.385,1.5 C 14.172,7.623 13.573,7.396 12.972,7.396 c -0.527,0 -0.826,0.214 -0.826,0.571 0,0.328 0.269,0.499 1.126,0.8 1.328,0.456 1.886,1.128 1.899,2.154 0,1.301 -1.03,2.258 -3.026,2.258 z"
   id="path4" />
	</g>
</g>
<g
   id="g10">
</g>
<g
   id="g12">
</g>
<g
   id="g14">
</g>
<g
   id="g16">
</g>
<g
   id="g18">
</g>
<g
   id="g20">
</g>
<g
   id="g22">
</g>
<g
   id="g24">
</g>
<g
   id="g26">
</g>
<g
   id="g28">
</g>
<g
   id="g30">
</g>
<g
   id="g32">
</g>
<g
   id="g34">
</g>
<g
   id="g36">
</g>
<g
   id="g38">
</g>
</svg>
