<?xml version="1.0" encoding="UTF-8" standalone="no"?>
<svg
   width="300"
   height="300"
   viewBox="0 0 61.44 61.44"
   version="1.1"
   id="svg4"
   sodipodi:docname="sass.svg"
   inkscape:version="1.1 (c68e22c387, 2021-05-23)"
   xmlns:inkscape="http://www.inkscape.org/namespaces/inkscape"
   xmlns:sodipodi="http://sodipodi.sourceforge.net/DTD/sodipodi-0.dtd"
   xmlns="http://www.w3.org/2000/svg"
   xmlns:svg="http://www.w3.org/2000/svg">
  <defs
     id="defs8" />
  <sodipodi:namedview
     id="namedview6"
     pagecolor="#ffffff"
     bordercolor="#999999"
     borderopacity="1"
     inkscape:pageshadow="0"
     inkscape:pageopacity="0"
     inkscape:pagecheckerboard="0"
     showgrid="false"
     width="300px"
     inkscape:zoom="0.8464"
     inkscape:cx="60.845936"
     inkscape:cy="242.79301"
     inkscape:window-width="1920"
     inkscape:window-height="1017"
     inkscape:window-x="1352"
     inkscape:window-y="-8"
     inkscape:window-maximized="1"
     inkscape:current-layer="svg4" />
  <path
     fill="#cf649a"
     d="m 52.890494,34.138493 c -2.148188,0.01212 -4.00835,0.528046 -5.568487,1.296233 -0.57605,-1.1401 -1.1521,-2.136307 -1.247989,-2.880252 -0.108009,-0.864075 -0.24002,-1.392241 -0.108009,-2.424211 0.131892,-1.03221 0.731944,-2.496338 0.731944,-2.616349 -0.01212,-0.108009 -0.132132,-0.636055 -1.368119,-0.648056 -1.235988,-0.012 -2.304202,0.240021 -2.424212,0.564049 -0.120011,0.324028 -0.360032,1.068093 -0.516045,1.83616 -0.216019,1.128099 -2.472216,5.124448 -3.756328,7.224631 -0.420037,-0.816071 -0.780068,-1.536134 -0.852195,-2.112304 -0.107889,-0.863956 -0.24002,-1.392122 -0.107889,-2.424092 0.132012,-1.03221 0.732064,-2.496218 0.732064,-2.616228 -0.012,-0.10801 -0.132012,-0.636056 -1.367999,-0.648057 -1.236228,-0.012 -2.304202,0.240021 -2.424212,0.564049 -0.120011,0.324029 -0.252022,1.092096 -0.516045,1.836161 -0.252142,0.744065 -3.252404,7.416647 -4.032472,9.156799 -0.396035,0.888078 -0.743945,1.596139 -0.996087,2.076181 -0.252022,0.480042 -0.012,0.036 -0.036,0.08401 -0.216019,0.408035 -0.33603,0.636055 -0.33603,0.636055 v 0.01212 c -0.168014,0.300026 -0.34803,0.587931 -0.432157,0.587931 -0.06001,0 -0.180016,-0.80407 0.024,-1.908046 0.444038,-2.316322 1.524133,-5.928518 1.512252,-6.060529 0,-0.06001 0.203898,-0.696181 -0.696181,-1.020089 -0.876077,-0.324029 -1.187984,0.216019 -1.26011,0.216019 -0.07201,0 -0.132012,0.192016 -0.132012,0.192016 0,0 0.972085,-4.068235 -1.860162,-4.068235 -1.776155,0 -4.224369,1.932169 -5.436475,3.696323 -0.768067,0.420037 -2.400209,1.307994 -4.12836,2.256197 -0.660058,0.360031 -1.344117,0.744065 -1.992174,1.092095 L 14.163113,37.894821 C 10.730813,34.234501 4.3822592,31.642275 4.6462822,26.721845 4.7422906,24.933689 5.3663451,20.217277 16.839466,14.504779 26.236287,9.82437 33.760944,11.108482 35.068938,13.964732 36.9291,18.045088 31.048587,25.62975 21.279854,26.721845 17.559529,27.141882 15.603238,25.701756 15.111315,25.161709 14.59527,24.59766 14.523264,24.573658 14.331247,24.681667 c -0.312027,0.168015 -0.12001,0.672059 0,0.972085 0.288025,0.756066 1.48813,2.100183 3.528308,2.772242 1.788036,0.588051 6.156538,0.91208 11.436999,-1.128099 5.916516,-2.2922 10.53692,-8.652755 9.180801,-13.969219 C 37.097235,7.9162034 28.120451,6.1400483 19.63571,9.1523113 14.583149,10.952469 9.110672,13.760714 5.1743283,17.445035 0.49391968,21.813417 -0.25014528,25.62975 0.06188196,27.213888 1.1540973,32.866382 8.9426573,36.550703 12.062929,39.274941 c -0.156013,0.08389 -0.300026,0.167895 -0.432038,0.240021 -1.560135,0.767947 -7.5006538,3.876338 -8.9887838,7.164506 -1.68014666,3.720324 0.2640231,6.396678 1.5601362,6.756709 4.00835,1.116098 8.1127076,-0.888077 10.3329016,-4.188365 2.208073,-3.300288 1.94417,-7.584662 0.924081,-9.540833 l -0.03612,-0.07201 1.224106,-0.720063 c 0.79219,-0.468041 1.572258,-0.900079 2.256197,-1.272231 -0.383913,1.044091 -0.660057,2.280199 -0.80395,4.080356 -0.168014,2.112304 0.696061,4.848423 1.836161,5.928517 0.504044,0.467921 1.104096,0.480042 1.476128,0.480042 1.320116,0 1.920168,-1.092215 2.580226,-2.400209 0.816071,-1.59614 1.536134,-3.444301 1.536134,-3.444301 0,0 -0.900079,5.004437 1.560136,5.004437 0.900079,0 1.800157,-1.164102 2.208193,-1.764154 v 0.012 c 0,0 0.024,-0.036 0.07201,-0.12001 a 4.3359785,4.3359785 0 0 0 0.144013,-0.2279 v -0.024 c 0.360031,-0.624055 1.164101,-2.05218 2.364206,-4.416386 1.548015,-3.048266 3.036265,-6.864599 3.036265,-6.864599 0,0 0.144013,0.936081 0.588051,2.472216 0.263903,0.912199 0.839954,1.908166 1.283993,2.880251 -0.360032,0.504044 -0.576051,0.792189 -0.576051,0.792189 l 0.012,0.012 c -0.287905,0.384034 -0.612053,0.792189 -0.947962,1.200105 -1.224107,1.464128 -2.688235,3.132393 -2.880252,3.612435 -0.22802,0.56393 -0.180016,0.983966 0.264023,1.320116 0.324028,0.240021 0.900079,0.287905 1.512132,0.240021 1.104097,-0.07213 1.872164,-0.348031 2.256197,-0.516166 0.600052,-0.216018 1.284112,-0.540047 1.94417,-1.020089 1.200105,-0.887957 1.932169,-2.148067 1.860162,-3.828214 -0.036,-0.92408 -0.336029,-1.83616 -0.708062,-2.700236 0.10801,-0.156013 0.216139,-0.312147 0.324029,-0.480041 1.896165,-2.772362 3.360293,-5.820509 3.360293,-5.820509 0,0 0.144013,0.936082 0.588051,2.472216 0.2279,0.780068 0.68406,1.632263 1.092096,2.472336 -1.776155,1.452127 -2.892253,3.132274 -3.276286,4.23637 -0.708062,2.040178 -0.156014,2.964259 0.888077,3.180278 0.467921,0.09601 1.1401,-0.120011 1.644024,-0.33603 0.624054,-0.204018 1.38012,-0.552168 2.076301,-1.068093 1.200105,-0.888078 2.352205,-2.124185 2.2922,-3.792331 -0.036,-0.768067 -0.240021,-1.524133 -0.516045,-2.244196 1.512132,-0.624055 3.468183,-0.984086 5.95252,-0.68406 5.340466,0.624055 6.396558,3.960346 6.19266,5.352468 -0.204017,1.392241 -1.320115,2.160188 -1.692267,2.400209 -0.372033,0.22802 -0.492043,0.312147 -0.45604,0.480042 0.048,0.252142 0.216019,0.240021 0.540047,0.192137 0.444039,-0.07213 2.808245,-1.1401 2.904254,-3.708204 C 61.579258,37.70292 58.446985,34.102606 52.8905,34.138489 Z M 11.702898,48.023705 C 9.9387443,49.955874 7.4545274,50.687938 6.3984352,50.063883 5.2583356,49.403825 5.7022544,46.559577 7.874564,44.507398 c 1.3201153,-1.248109 3.036265,-2.40021 4.164363,-3.108271 0.252022,-0.156014 0.636056,-0.383914 1.092095,-0.660058 0.07201,-0.04788 0.120011,-0.07201 0.120011,-0.07201 0.08401,-0.04801 0.180016,-0.10801 0.276024,-0.168015 0.80407,2.928256 0.036,5.49648 -1.824159,7.524657 z m 12.901126,-8.772766 c -0.612053,1.500131 -1.908167,5.352467 -2.688235,5.136448 -0.672178,-0.180015 -1.080094,-3.09627 -0.132131,-5.976521 0.480042,-1.452247 1.500131,-3.180278 2.100183,-3.852457 0.972205,-1.080094 2.028177,-1.440125 2.29232,-0.996087 0.312028,0.576171 -1.188103,4.752535 -1.572137,5.688617 z m 10.644929,5.088444 c -0.264023,0.132132 -0.504044,0.22802 -0.612053,0.156134 -0.08401,-0.048 0.107889,-0.22802 0.107889,-0.22802 0,0 1.332117,-1.428125 1.860163,-2.088182 0.300026,-0.383914 0.660057,-0.827953 1.044091,-1.332117 v 0.144013 c 1.2e-4,1.728031 -1.656025,2.880131 -2.40009,3.348172 z M 43.45755,42.46722 c -0.192017,-0.144013 -0.167895,-0.588052 0.480042,-1.980173 0.252142,-0.552048 0.828072,-1.476129 1.824159,-2.352205 0.120011,0.360031 0.192137,0.707941 0.180016,1.03209 -0.01188,2.160188 -1.548015,2.964258 -2.484217,3.300288 z"
     id="path2"
     style="stroke-width:0.12001;fill:#ed143d;fill-opacity:1" />
</svg>
