<?xml version="1.0" encoding="UTF-8" standalone="no"?>
<!-- Generator: Adobe Illustrator 19.2.1, SVG Export Plug-In . SVG Version: 6.00 Build 0)  -->

<svg
   version="1.1"
   id="layer"
   x="0px"
   y="0px"
   viewBox="0 0 300 150"
   xml:space="preserve"
   sodipodi:docname="solidworks.svg"
   width="300"
   height="150"
   inkscape:version="1.1 (c68e22c387, 2021-05-23)"
   xmlns:inkscape="http://www.inkscape.org/namespaces/inkscape"
   xmlns:sodipodi="http://sodipodi.sourceforge.net/DTD/sodipodi-0.dtd"
   xmlns="http://www.w3.org/2000/svg"
   xmlns:svg="http://www.w3.org/2000/svg"><defs
   id="defs9" /><sodipodi:namedview
   id="namedview7"
   pagecolor="#ffffff"
   bordercolor="#999999"
   borderopacity="1"
   inkscape:pageshadow="0"
   inkscape:pageopacity="0"
   inkscape:pagecheckerboard="0"
   showgrid="false"
   width="300px"
   inkscape:zoom="1.7845092"
   inkscape:cx="88.259562"
   inkscape:cy="170.07477"
   inkscape:window-width="1920"
   inkscape:window-height="1017"
   inkscape:window-x="1352"
   inkscape:window-y="-8"
   inkscape:window-maximized="1"
   inkscape:current-layer="layer"
   height="299px" />
<style
   type="text/css"
   id="style2">
	.st0{fill:#E23B3B;}
</style>
<path
   class="st0"
   d="m 83.130366,41.769296 c 3.853546,0.65792 7.002176,1.12788 7.707092,2.5847 0.79891,1.6448 -3.383602,1.7388 -5.49835,1.78579 -10.103818,0.18798 -16.213102,0.37596 -16.542063,3.4776 -0.375956,3.99452 4.323492,8.03605 8.975946,13.67539 4.2765,5.16939 9.116927,10.24479 7.707095,14.99124 -1.738798,5.9213 -9.727857,7.14316 -17.387958,7.14316 -7.33114,0 -14.23933,-1.08087 -17.152988,-1.59782 -3.618576,-0.65791 -3.101636,-2.25573 -2.114752,-2.77267 1.080874,-0.56393 7.237151,-0.61093 11.513649,-0.7989 3.524587,-0.18798 13.769384,-0.18798 15.367197,-2.5847 1.973769,-2.86666 -2.819669,-7.89507 -7.237151,-13.06446 -5.498354,-6.48524 -11.513649,-13.20545 -8.318023,-18.09288 4.135514,-6.29726 16.213097,-5.87432 22.980306,-4.74645 M 33.55118,52.249066 c 6.344255,-0.32896 14.098346,0.65792 18.421839,3.61858 2.161746,1.45683 3.66557,4.18251 2.772674,7.33114 -2.490707,8.83497 -11.84261,19.54971 -32.614173,27.77374 -6.579228,2.63169 -11.795616,3.61858 -12.9234835,2.91365 -1.1748627,-0.7519 2.2557345,-6.57922 3.2896135,-8.55299 3.336609,-6.29726 7.472124,-12.40654 11.513649,-17.99888 1.503824,-2.06776 3.759559,-5.63934 5.874311,-5.35738 1.87978,0.28197 -0.328962,4.04153 -1.738796,6.48524 -2.396719,4.04153 -9.022941,15.3202 -6.861195,15.97813 4.840432,1.50382 27.538769,-14.00436 24.20216,-22.60435 -1.550817,-3.99454 -11.41966,-4.37048 -17.622931,-4.37048 -2.81967,0 -8.975948,0.61092 -9.351903,-1.36284 -0.375956,-1.78579 9.398897,-3.57159 15.038235,-3.85356 M 50.657173,14.512504 c 7.660102,-0.328966 16.683043,1.17486 18.374845,6.250268 2.772674,8.271024 -11.231683,20.348614 -23.45025,26.269914 -3.007647,1.45683 -4.793437,1.87977 -5.545349,1.73879 -0.704917,-0.094 -0.8459,-0.79891 -0.610928,-1.22186 0.42295,-0.89289 2.396718,-2.63168 5.02841,-4.55846 13.72239,-10.05682 18.233861,-17.38796 15.602169,-20.395601 -1.644807,-1.926778 -8.646985,-3.242624 -15.837141,-3.242624 -1.973769,0 -7.143163,0.422951 -7.660102,-1.268845 -0.42295,-1.409841 6.485239,-3.242625 14.098346,-3.571582 M 193.37943,108.3135 182.71169,132.37467 c -0.56394,1.26885 -1.59781,1.97377 -2.86667,1.97377 h -0.047 -1.92678 l -3.10164,-15.13222 -7.42512,13.25244 c -0.32896,0.56393 -0.75191,0.98688 -1.17486,1.31585 -0.51694,0.37595 -1.12787,0.51694 -1.78579,0.51694 h -0.14099 -2.30273 V 106.5747 h 1.83279 c 0.28196,0 0.56393,0.047 0.8459,0.28196 0.28196,0.23498 0.37596,0.61093 0.37596,0.8929 l -0.094,23.0743 8.506,-14.80327 h 1.78579 c 1.08087,-0.047 2.02076,0.70492 2.16175,1.87978 l 2.81966,13.06447 10.76175,-24.39014 h 1.40983 c 0.28196,0 0.56393,0.047 0.7989,0.23497 0.23497,0.18798 0.37596,0.56394 0.37596,0.8459 0,0.32896 -0.047,0.46995 -0.14099,0.65793 m 96.94963,1.26885 v 0.094 -0.094 c -0.094,0 -10.29179,0.047 -10.29179,0.047 -2.11476,0 -3.3836,1.36284 -3.3836,3.05464 0,0.98689 0.56393,1.92678 1.50382,2.86666 l 7.37813,7.28415 c 0,0 2.63169,2.20875 2.63169,5.07541 v 0 c 0,2.06776 -0.61093,6.43824 -5.9213,6.48524 h -11.32567 v -2.06776 h -0.047 0.047 c 0,-0.32896 0.32896,-0.79891 0.65792,-0.84591 0.094,-0.047 10.15081,-0.047 10.19781,-0.047 2.06775,0 3.3836,-1.36284 3.3836,-3.05463 0,-0.98689 -0.46994,-2.06777 -1.36284,-2.96066 l -7.80108,-7.61311 c -0.79891,-0.70492 -2.34973,-2.44371 -2.34973,-4.60545 0.047,-2.06776 0.56394,-6.43825 5.92131,-6.48524 h 11.46665 v 2.06775 0 c -0.047,0.28197 -0.37596,0.75191 -0.70492,0.79891 m -74.1103,12.26555 c -1.92678,8.08306 -7.37813,11.09071 -12.54754,10.80874 l -0.51693,-0.047 c -4.98142,-0.65792 -8.64698,-4.46448 -6.72021,-12.40655 2.02076,-8.08305 7.80108,-11.0907 12.87649,-10.80873 5.1224,0.51694 8.78797,4.51147 6.90819,12.45354 m -6.15628,-15.27321 v 0 c -8.92895,-0.70492 -14.56829,5.49836 -16.54206,13.39343 -1.78579,7.09617 0.61093,14.5213 9.06994,15.50818 9.06993,0.70491 14.75627,-5.54534 16.58905,-13.39343 1.6918,-7.09616 -0.79891,-14.52129 -9.11693,-15.50818 m 59.91797,1.08087 c 0,0.65793 -0.37596,0.98689 -0.37596,0.98689 l -14.28632,12.12458 10.66775,11.60763 c 0,0 0.42295,0.51695 0.42295,0.98689 0,0.28196 -0.14099,0.61093 -0.37596,0.75191 -0.23497,0.14099 -0.46994,0.18798 -0.75191,0.18798 h -1.36284 l -11.27868,-12.26556 -2.25573,12.26556 h -3.05464 l 5.16939,-27.72675 h 1.36284 c 0.32896,0 0.61093,0.094 0.8929,0.28196 0.23497,0.18798 0.51693,0.56394 0.42295,1.17487 l -1.87979,10.76174 14.23934,-12.21857 h 1.36284 c 0.23497,0 0.51693,0.047 0.7519,0.23497 0.23498,0.28197 0.37596,0.61093 0.32897,0.8459 m -33.03713,11.56065 c -1.69179,0.46995 -4.08851,0.51694 -6.53223,0.51694 -0.89289,0 -2.11475,-0.047 -3.19562,-0.047 l 1.83278,-10.10382 c 1.45683,0 6.15628,-0.094 7.7541,0 0.61092,0.047 1.22185,0.094 1.55081,0.14098 1.31584,0.23497 2.16174,0.51695 2.72568,1.03388 2.34972,2.39673 0.18798,7.33115 -4.13552,8.45901 m 6.8612,-10.05682 c -2.16175,-2.44371 -5.82731,-2.53771 -10.05682,-2.53771 h -7.14316 l -5.16939,27.72675 h 3.05464 l 2.16174,-11.93659 5.54535,0.047 6.90819,11.8896 h 1.55082 c 0.28197,0 0.51694,-0.047 0.75191,-0.18798 0.23497,-0.18797 0.37596,-0.51694 0.32897,-0.75191 0,-0.37596 -0.37596,-0.98688 -0.37596,-0.98688 l -5.87431,-10.05682 c 7.00217,-0.61093 8.83496,-5.54535 9.25791,-7.51912 0.37596,-1.6448 0.28196,-4.2765 -0.93989,-5.68633 m -198.504745,-2.6317 h 14.239329 v 2.96065 c -0.187978,1.31584 -0.93989,2.67868 -2.255736,2.67868 h -10.76169 c -1.080873,0 -1.691801,0.28197 -1.78579,0.93989 -0.04699,0.42295 0.140983,0.70493 0.892895,1.22186 l 9.398898,6.67322 c 2.020762,1.40983 3.054641,3.66557 2.537701,6.76721 -0.516939,3.33661 -3.14863,6.43824 -8.412013,6.43824 H 37.122761 v -3.85353 c 0.187978,-1.26885 0.798906,-1.78579 1.926773,-1.78579 h 10.291793 c 1.832785,0 2.39672,-0.42295 2.537703,-1.45683 0.09398,-0.75191 -0.328962,-1.17486 -1.268852,-1.83278 l -8.881958,-6.20328 c -2.490707,-1.73879 -3.14863,-4.37049 -2.819669,-6.57922 0.469945,-3.14863 3.24262,-5.9683 6.391251,-5.9683 m 100.803178,0 h -14.89725 l -0.094,0.42295 c -0.32896,1.87977 -0.18798,4.04152 2.77268,4.04152 h 11.0437 c 4.37048,0 6.06229,3.14863 4.98141,9.11694 -0.98688,5.45135 -3.94753,9.58687 -8.36501,9.58687 h -6.0153 l 2.86667,-15.60217 h -5.07541 c -0.70491,0 -1.17486,0.51694 -1.22185,0.93989 l -3.4776,19.12675 h 11.70163 c 8.64699,0 14.66228,-4.04153 16.49506,-14.28632 1.36284,-7.80108 -1.92677,-13.34643 -10.71474,-13.34643 m -34.16499,24.95406 -0.51694,2.77268 H 91.918304 l 5.075408,-27.72674 h 5.169388 c 0.56393,0 0.8929,0.51693 0.79891,0.93988 l -4.04153,22.27539 h 11.74863 c 1.08088,0 1.50382,0.46995 1.26885,1.73879 m 14.23933,-24.01418 -4.88743,26.73987 h -6.15627 l 5.0754,-27.72675 h 5.1694 c 0.56393,0.047 0.89289,0.56393 0.7989,0.98688 m -42.295044,13.48742 c -1.033882,6.43825 -3.994532,9.68087 -9.633869,9.68087 -5.592344,0 -7.472123,-3.24262 -6.438245,-9.68087 1.033879,-6.43824 3.994532,-9.68086 9.63387,-9.68086 5.639334,0 7.472127,3.28961 6.438244,9.68086 m -5.639338,-14.4273 c -9.915836,0 -15.226213,6.57922 -16.542059,14.4743 -1.268851,7.89507 1.87978,14.4273 11.795616,14.4273 9.915837,0 15.226217,-6.57922 16.542064,-14.4273 1.268844,-7.89508 -1.879785,-14.4743 -11.795621,-14.4743"
   id="path4"
   style="fill:#ed143d;fill-opacity:1;stroke-width:0.469945" />
</svg>
