<?xml version="1.0" encoding="UTF-8" standalone="no"?>
<svg
   height="300"
   viewBox="0 0 299.99987 299.99972"
   width="300"
   version="1.1"
   id="svg48"
   sodipodi:docname="spring.svg"
   inkscape:version="1.2.1 (9c6d41e410, 2022-07-14)"
   xml:space="preserve"
   xmlns:inkscape="http://www.inkscape.org/namespaces/inkscape"
   xmlns:sodipodi="http://sodipodi.sourceforge.net/DTD/sodipodi-0.dtd"
   xmlns="http://www.w3.org/2000/svg"
   xmlns:svg="http://www.w3.org/2000/svg"><defs
     id="defs52" /><sodipodi:namedview
     id="namedview50"
     pagecolor="#ffffff"
     bordercolor="#999999"
     borderopacity="1"
     inkscape:pageshadow="0"
     inkscape:pageopacity="0"
     inkscape:pagecheckerboard="0"
     inkscape:document-units="mm"
     showgrid="false"
     units="px"
     inkscape:zoom="1.4105053"
     inkscape:cx="148.88282"
     inkscape:cy="154.55454"
     inkscape:window-width="1920"
     inkscape:window-height="1011"
     inkscape:window-x="0"
     inkscape:window-y="32"
     inkscape:window-maximized="1"
     inkscape:current-layer="g953"
     inkscape:showpageshadow="0"
     inkscape:deskcolor="#d1d1d1" /><g
     id="g953"
     transform="matrix(0.81242676,0,0,0.81242676,-76.892348,12.86357)"><path
       d="m 414.6343,241.73706 c -40.86847,54.4416 -128.13394,36.06819 -184.0984,38.70004 0,0 -9.91503,0.56293 -19.87973,2.20166 0,0 3.77391,-1.60573 8.59081,-3.27751 39.29599,-13.5897 57.86802,-16.32089 81.75349,-28.58635 44.85763,-22.97509 89.51664,-73.04681 98.604,-125.05516 -17.08228,50.02203 -69.02446,93.07546 -116.31532,110.55503 -32.36039,11.951 -90.90708,23.57095 -90.92364,23.57095 a 87.397906,87.397906 0 0 1 -2.36685,-1.25799 c -39.80908,-19.36657 -40.96777,-105.60579 31.35068,-133.39765 31.71485,-12.18275 62.02273,-5.49549 96.30321,-13.65593 36.54825,-8.69013 78.88987,-36.084729 96.08804,-71.904624 19.28383,57.238985 42.45753,146.755654 0.89371,202.107664 z M 415.32939,21.918091 A 152.48286,152.48286 0 0 1 397.70079,53.202566 165.22839,165.22839 0 0 0 279.06807,3.0315245 c -91.42021,0 -165.77462,74.3544465 -165.77462,165.7580655 a 165.24494,165.24494 0 0 0 53.05119,121.39702 l 3.64174,3.21099 a 14.169054,14.169054 0 1 1 0.0167,0.0176 l 2.46637,2.18511 a 164.86423,164.86423 0 0 0 106.59897,38.96487 c 87.36479,0 159.12049,-67.99819 165.26152,-153.80702 4.53544,-42.02717 -7.87906,-95.392849 -29.00023,-158.839077"
       id="path2021"
       style="fill:#ed143d;fill-opacity:1;stroke-width:16.5526" /></g></svg>
