<?xml version="1.0" encoding="UTF-8" standalone="no"?>
<!-- Created with Inkscape (http://www.inkscape.org/) -->

<svg
   width="60"
   height="60"
   viewBox="0 0 15.875 15.875"
   version="1.1"
   id="svg5"
   inkscape:version="1.1 (c68e22c387, 2021-05-23)"
   sodipodi:docname="wapp.svg"
   xmlns:inkscape="http://www.inkscape.org/namespaces/inkscape"
   xmlns:sodipodi="http://sodipodi.sourceforge.net/DTD/sodipodi-0.dtd"
   xmlns="http://www.w3.org/2000/svg"
   xmlns:svg="http://www.w3.org/2000/svg">
  <sodipodi:namedview
     id="namedview7"
     pagecolor="#ffffff"
     bordercolor="#999999"
     borderopacity="1"
     inkscape:pageshadow="0"
     inkscape:pageopacity="0"
     inkscape:pagecheckerboard="0"
     inkscape:document-units="mm"
     showgrid="false"
     units="px"
     inkscape:zoom="6.6762664"
     inkscape:cx="35.423991"
     inkscape:cy="31.379814"
     inkscape:window-width="1920"
     inkscape:window-height="1017"
     inkscape:window-x="1352"
     inkscape:window-y="-8"
     inkscape:window-maximized="1"
     inkscape:current-layer="g1157"
     showguides="true"
     inkscape:guide-bbox="true" />
  <defs
     id="defs2" />
  <g
     inkscape:label="imagen_iconos"
     inkscape:groupmode="layer"
     id="layer1"
     style="display:inline">
    <g
       id="g1084"
       transform="matrix(0.04155759,0,0,0.04155759,27.853583,5.3831291)">
      <g
         id="g1033" />
      <g
         id="g1035" />
      <g
         id="g1037" />
      <g
         id="g1039" />
      <g
         id="g1041" />
      <g
         id="g1043" />
      <g
         id="g1045" />
      <g
         id="g1047" />
      <g
         id="g1049" />
      <g
         id="g1051" />
      <g
         id="g1053" />
      <g
         id="g1055" />
      <g
         id="g1057" />
      <g
         id="g1059" />
      <g
         id="g1061" />
    </g>
    <g
       id="g1157"
       transform="matrix(0.03114106,0,0,0.03114106,-7.5107342e-6,-0.03461136)">
      <path
         d="m 10.894531,512 c -2.875,0 -5.67188,-1.13672 -7.74609,-3.23438 C 0.41406098,506 -0.64062902,501.98437 0.38672098,498.23047 L 33.671871,376.68359 C 12.949221,339.21094 2.023441,296.82031 2.039061,253.78906 2.097661,113.84766 115.98047,0 255.91016,0 c 67.87109,0.0273 131.64453,26.464849 179.57812,74.433599 47.92578,47.972651 74.30859,111.742181 74.28906,179.558591 -0.0625,139.94531 -113.94531,253.80078 -253.86718,253.80078 0,0 -0.10547,0 -0.10938,0 -40.87109,-0.0156 -81.39062,-9.97656 -117.46875,-28.84375 L 13.656251,511.64453 C 12.742191,511.88281 11.812501,512 10.894531,512 Z m 0,0"
         fill="#e5e5e5"
         id="path1133"
         style="fill:#ed143d;fill-opacity:1" />
      <path
         d="m 10.894655,501.10547 34.46875,-125.8711 C 24.101686,338.39453 12.918093,296.60547 12.933718,253.79297 12.988405,119.85938 121.98059,10.89453 255.91028,10.89453 c 64.99218,0.02734 125.99609,25.324219 171.87109,71.238281 45.87109,45.914059 71.125,106.945309 71.10156,171.855469 -0.0586,133.92969 -109.0664,242.91016 -242.97265,242.91016 -0.008,0 0.004,0 0,0 h -0.10547 c -40.66407,-0.0156 -80.61719,-10.21485 -116.10547,-29.57032 z m 134.769525,-77.75 7.37891,4.37109 c 31,18.39844 66.54297,28.12891 102.78906,28.14844 h 0.0781 c 111.30468,0 201.89843,-90.57813 201.94531,-201.90234 0.0196,-53.94922 -20.96482,-104.67969 -59.09372,-142.83985 -38.13281,-38.160155 -88.83203,-59.187499 -142.77735,-59.210936 -111.39453,0 -201.984366,90.566406 -202.027335,201.886716 -0.01563,38.14844 10.65625,75.29688 30.875,107.44532 l 4.804688,7.64062 -20.40625,74.5 z m 0,0"
         fill="#ffffff"
         id="path1135" />
      <path
         d="M 19.345825,492.62109 52.623169,371.10156 C 32.091919,335.53906 21.29895,295.1914 21.310669,253.86718 21.36145,124.57031 126.5841,19.378906 255.86926,19.378906 c 62.75,0.02734 121.64453,24.449219 165.92187,68.773438 44.28906,44.324216 68.66406,103.242186 68.64063,165.898436 -0.0547,129.30078 -105.28125,234.5039 -234.55078,234.5039 -0.0117,0 0.004,0 0,0 h -0.10547 c -39.25391,-0.0156 -77.82813,-9.86718 -112.08594,-28.53906 z m 0,0"
         fill="#64b161"
         id="path1137"
         style="fill:#ed143d;fill-opacity:1" />
      <g
         fill="#ffffff"
         id="g1143"
         transform="translate(1.244509e-4)"
         style="fill:#333333">
        <path
           d="m 10.894531,501.10547 34.46875,-125.8711 C 24.101562,338.39453 12.917969,296.60547 12.933594,253.79297 12.988281,119.85938 121.98047,10.894531 255.91016,10.894531 c 64.99218,0.02734 125.99609,25.324219 171.87109,71.238281 45.87109,45.914058 71.125,106.945308 71.10156,171.855468 -0.0586,133.92969 -109.0664,242.91016 -242.97265,242.91016 -0.008,0 0.004,0 0,0 h -0.10547 c -40.66407,-0.0156 -80.61719,-10.21485 -116.10547,-29.57032 z m 134.769529,-77.75 7.37891,4.37109 c 31,18.39844 66.54297,28.12891 102.78906,28.14844 h 0.0781 c 111.30468,0 201.89843,-90.57813 201.94531,-201.90234 C 457.875,200.02344 436.89062,149.29297 398.76172,111.13281 360.62891,72.972656 309.92969,51.945312 255.98437,51.921875 144.58984,51.921875 54,142.48828 53.957031,253.80859 c -0.01563,38.14844 10.65625,75.29688 30.875,107.44532 l 4.804688,7.64062 -20.40625,74.5 z m 0,0"
           id="path1139"
           style="fill:#333333" />
        <path
           d="m 195.18359,152.24609 c -4.54687,-10.10937 -9.33593,-10.3125 -13.66406,-10.48828 -3.53906,-0.15234 -7.58984,-0.14453 -11.63281,-0.14453 -4.04688,0 -10.625,1.52344 -16.1875,7.59766 -5.56641,6.07422 -21.25391,20.76172 -21.25391,50.63281 0,29.875 21.75781,58.73828 24.79297,62.79297 3.03516,4.05078 42,67.30859 103.70703,91.64453 51.28516,20.22656 61.71875,16.20312 72.85156,15.19141 11.13282,-1.01172 35.91797,-14.6875 40.97657,-28.86329 5.0625,-14.17578 5.0625,-26.32421 3.54297,-28.86718 -1.51954,-2.52735 -5.56641,-4.04688 -11.63672,-7.08203 -6.07032,-3.03516 -35.91797,-17.72657 -41.48438,-19.75 -5.5664,-2.02735 -9.61328,-3.03516 -13.66015,3.04296 -4.05078,6.07032 -15.67579,19.74219 -19.21875,23.78907 -3.54297,4.05859 -7.08594,4.5664 -13.15625,1.52734 -6.07032,-3.04297 -25.625,-9.44922 -48.82032,-30.13281 -18.04687,-16.08985 -30.23437,-35.96485 -33.77734,-42.04297 -3.53906,-6.07031 -0.0586,-9.07031 2.66797,-12.38672 4.91016,-5.97266 13.14844,-16.71094 15.17187,-20.75781 2.02344,-4.05469 1.01172,-7.59766 -0.5039,-10.63672 -1.51953,-3.03516 -13.32031,-33.05859 -18.71485,-45.06641 z m 0,0"
           fill-rule="evenodd"
           id="path1141"
           style="fill:#333333" />
      </g>
    </g>
  </g>
  <g
     inkscape:groupmode="layer"
     id="layer2"
     inkscape:label="Layer 2"
     style="display:inline" />
</svg>
